<?xml version="1.0" encoding="UTF-8" standalone="no"?>
<!DOCTYPE svg PUBLIC "-//W3C//DTD SVG 1.0//EN" "http://www.w3.org/TR/2001/REC-SVG-20010904/DTD/svg10.dtd">
<svg
xmlns:dc="http://purl.org/dc/elements/1.1/"
xmlns:cc="http://web.resource.org/cc/"
xmlns:rdf="http://www.w3.org/1999/02/22-rdf-syntax-ns#"
xmlns:svg="http://www.w3.org/2000/svg"
xmlns="http://www.w3.org/2000/svg"
xmlns:sodipodi="http://inkscape.sourceforge.net/DTD/sodipodi-0.dtd"
xmlns:inkscape="http://www.inkscape.org/namespaces/inkscape"
version="1.0"
height="417pt"
width="588"
id="svg2">
<path
style="fill:none;stroke:#000000;stroke-width:4;stroke-miterlimit:4;stroke-dasharray:none;stroke-opacity:1"
d="M 246.55624,445.55603 C 130.80587,418.39845 35.513972,395.59161 34.796512,394.87415 C 33.744472,393.82211 33.735832,393.25321 34.751832,391.93421 C 35.444712,391.03469 67.302832,366.53016 105.54765,337.4797 C 143.79247,308.42924 175.07668,284.21068 175.06812,283.66068 C 175.05955,283.11068 137.72969,267.03903 92.112862,247.9459 C 46.496032,228.85277 8.8093816,212.65277 8.3647316,211.9459 C 7.4317416,210.46268 204.30692,12.877091 206.05498,13.542291 C 208.09055,14.316891 577.03254,282.35001 578.28364,283.96311 C 578.98324,284.86521 579.30634,286.25314 579.00154,287.04739 C 577.51514,290.9209 462.03434,492.82834 460.68624,493.91068 C 459.82994,494.59818 458.65284,495.10955 458.07044,495.04706 C 457.48804,494.98458 362.30664,472.71361 246.55624,445.55603 z "
id="path1364" />
</svg>
